<?xml version="1.0" encoding="UTF-8"?>
<!DOCTYPE svg  PUBLIC '-//W3C//DTD SVG 1.1//EN'  'http://www.w3.org/Graphics/SVG/1.1/DTD/svg11.dtd'>
<svg enable-background="new 0 0 600 600" version="1.1" viewBox="0 0 600 600" xml:space="preserve" xmlns="http://www.w3.org/2000/svg">
				<path d="m164.2 284.6c6 19.7 14.1 38.8 19.1 58.9s9.2 40.7 10.8 61.4c0.6 7.9-1.6 15.5-0.5 23.6 1.2 8.4 4.6 16.5 9.9 23.1 12.3 15.5 33.7 22.5 52 14.5 17.1-7.4 28.5-25 28.5-43.5 0-23.9-17.6-38.8-32.8-55-8.4-9-16.4-18.5-21.4-29.8-4.9-11.3-6.4-24.5-1.5-35.8 4.8-11.2 14.6-18 24-24.9 9-6.6 17-16.4 22.7-26.1 9.6-16 15.4-38.7 2.9-54.9-6.9-9.1-18.7-14.1-32.9-14.1-24.2 0-47.4 13.5-65.3 28.8-7.3 6.2-13.7 13.8-17.3 22.7-5.6 13.7-4.3 29.3-0.4 43.6 0.7 2.5 1.5 5 2.2 7.5z"/>
		<path d="m244.6 155c-0.1 13.6 7.5 21.8 16.9 21.9 9.5 0.1 17.2-8 17.3-21.6s-7.4-24.6-16.9-24.7c-9.4-0.1-17.2 10.8-17.3 24.4z"/>
			<ellipse transform="matrix(-.9969 -.078779 .078779 -.9969 438.05 333.91)" cx="225.6" cy="158.3" rx="11.7" ry="14.7"/>
			<ellipse transform="matrix(-.9998 -.019503 .019503 -.9998 398.49 345.87)" cx="200.9" cy="171" rx="9.1" ry="11.8"/>
		<ellipse transform="matrix(-.972 .2351 -.2351 -.972 400.93 324.17)" cx="181.1" cy="186" rx="7.6" ry="9.9"/>
		<path d="m157.6 203.2c1.1 5.4 5 8.9 8.7 7.9s5.7-6.2 4.5-11.5c-1.1-5.4-5-8.9-8.7-7.9-3.6 1-5.7 6.1-4.5 11.5z"/>
				<path d="m435.8 284.6c-6 19.7-14.1 38.8-19.1 58.9s-9.2 40.7-10.8 61.4c-0.6 7.9 1.6 15.5 0.5 23.6-1.2 8.4-4.6 16.5-9.9 23.1-12.3 15.5-33.7 22.5-52 14.5-17.1-7.4-28.5-25-28.5-43.5 0-23.9 17.6-38.8 32.8-55 8.4-9 16.4-18.5 21.4-29.8 4.9-11.3 6.4-24.5 1.5-35.8-4.8-11.2-14.6-18-24-24.9-9-6.6-17-16.4-22.7-26.1-9.6-16-15.4-38.7-2.9-54.9 6.9-9.1 18.7-14.1 32.9-14.1 24.2 0 47.4 13.5 65.3 28.8 7.3 6.2 13.7 13.8 17.3 22.7 5.6 13.7 4.3 29.3 0.4 43.6-0.7 2.5-1.5 5-2.2 7.5z"/>
		<path d="m355.4 155c0.1 13.6-7.5 21.8-16.9 21.9-9.5 0.1-17.2-8-17.3-21.6s7.4-24.6 16.9-24.7c9.4-0.1 17.2 10.8 17.3 24.4z"/>
			<ellipse transform="matrix(.9969 -.078779 .078779 .9969 -11.308 29.986)" cx="374.4" cy="158.3" rx="11.7" ry="14.7"/>
		<ellipse transform="matrix(.9998 -.019503 .019503 .9998 -3.259 7.8155)" cx="399.1" cy="171" rx="9.1" ry="11.8"/>
		<ellipse transform="matrix(.972 .2351 -.2351 .972 55.456 -93.249)" cx="418.9" cy="186" rx="7.6" ry="9.9"/>
		<path d="m442.4 203.2c-1.1 5.4-5 8.9-8.7 7.9s-5.7-6.2-4.5-11.5c1.1-5.4 5-8.9 8.7-7.9 3.6 1 5.7 6.1 4.5 11.5z"/>
</svg>
